<svg width="450" height="307" viewBox="0 0 450 307" fill="none" xmlns="http://www.w3.org/2000/svg">
<g opacity="0.35">
<path d="M474.018 18.5108C478.244 19.345 482.31 19.7078 482.984 25.5844C483.328 28.5776 487.481 28.8838 490.548 28.9646C496.048 29.1104 497.486 29.9747 497.159 34.7423C496.895 38.5926 498.174 39.7318 501.877 40.0488C506.752 40.4659 511.32 41.8172 516.451 39.8993C521.068 38.1743 523.709 40.4514 525.902 45.8579C526.367 47.0031 527.032 48.5304 528.409 47.7047C534.683 43.9412 542.174 46.8729 548.896 43.5518C553.361 41.3459 559.723 42.3452 564.203 46.5306C566.369 48.5545 568.939 49.5273 571.628 47.7481C574.478 45.8615 576.839 47.5974 578.306 49.0644C582.966 53.7235 588.227 52.3385 593.573 51.3476C594.289 51.215 594.982 50.9642 595.685 50.7689C598.589 49.9601 595.867 56.4394 599.122 53.6777C600.846 52.2143 602.053 51.9081 604.003 51.6779C612.89 50.6279 619.443 55.5281 626.258 59.8714L622.998 67.3151C622.762 67.2569 622.525 67.2034 622.287 67.1548C620.354 66.763 618.59 63.4745 618.007 64.3738C616.802 66.2302 614.378 67.8178 614.693 70.4144C615.097 73.7463 613.402 74.5334 610.367 74.6745C607.664 74.7998 604.902 75.2651 602.809 77.3422C601.104 79.0358 599.085 79.0696 596.667 78.9792C590.42 78.7453 587.057 81.6288 586.276 87.7851C585.474 94.0993 579.409 96.3655 576.202 100.812C575.165 102.249 574.235 100.387 573.678 99.4286C571.133 95.0432 572.71 90.9663 574.98 87.1184C576.079 85.2572 577.845 83.7769 579.238 82.0688C580.084 81.0333 582.284 80.3679 581.282 78.7574C580.395 77.3325 578.358 76.9456 576.592 76.9902C574.386 77.0468 572.894 78.5175 571.877 80.187C570.105 83.097 568.017 82.6691 564.947 82.1339C556.943 80.7392 548.657 79.923 543.082 87.732C541.607 89.7994 537.04 90.1008 538.432 93.458C539.743 96.6175 543.779 94.5272 546.513 95.3457C548.533 95.9497 551.256 95.2722 551.346 97.9158C551.443 100.765 554.426 103.955 551.098 106.494C550.065 107.282 549.133 107.762 548.993 109.104C548.922 109.78 548.946 110.803 548.095 110.801C547.29 110.799 547.378 109.788 547.295 109.139C547.234 108.659 547.277 108.168 547.22 107.687C547.061 106.338 547.672 104.875 546.595 103.661C546.219 105.027 546.09 106.522 545.424 107.738C542.254 113.545 538.874 119.029 531.463 120.777C524.673 122.378 523.998 123.73 525.631 130.396C526.227 132.826 526.24 134.896 523.559 135.755C520.968 136.586 520.161 134.246 519.267 132.626C518.577 131.377 518.191 129.909 517.966 128.495C517.638 126.424 516.455 126.237 514.794 126.83C513.502 127.292 512.131 128.856 510.952 127.002C510.138 125.723 509.62 124.877 508.446 126.482C507.743 127.442 506.636 128.626 506.773 129.562C507.072 131.596 508.624 129.95 509.634 130.045C512.519 130.32 515.238 130.654 511.447 133.96C509.727 135.46 510.241 137.422 510.636 139.38C512.649 149.378 508.241 156.764 498.481 160.154C496.042 161.001 492.995 160.857 491.943 164.199C491.272 166.329 490.27 166.148 489.295 164.016C488.117 161.438 486.354 163.088 485.032 163.987C483.238 165.209 483.208 166.74 484.874 168.207C485.613 168.858 486.404 169.459 487.094 170.154C491.807 174.898 490.148 181.539 483.735 184.016C481.967 184.699 481.696 183.525 480.988 182.549C479.062 179.893 475.739 176.759 473.267 178.934C470.076 181.74 473.45 185.073 475.988 187.435C477.856 189.172 480.054 191.263 479.58 193.52C478.496 198.682 483.199 201.821 483.497 206.393C483.633 208.454 485.675 208.763 487.375 209.221C492.36 210.565 497.003 213.342 502.513 212.507C503.46 212.364 504.853 212.734 504.922 213.724C505.021 215.13 503.52 214.725 502.642 214.802C496.357 215.351 489.923 214.321 484.27 212.565C479.912 211.211 476.224 206.337 473.392 202.27C471.04 198.883 468.461 195.65 465.672 192.592C464.856 191.698 463.331 191.134 464.317 189.783C465.429 188.259 467.052 188.858 468.205 189.845C469.879 191.279 471.34 192.947 472.911 194.496C473.432 195.01 474.177 195.571 474.807 195.054C475.546 194.449 474.755 193.791 474.368 193.265C470.277 187.701 468.743 181.528 469.305 174.725C469.515 172.189 469.088 169.65 465.217 170.463C461.887 171.162 461.975 168.072 460.818 166.481C455.964 159.803 454.161 159.632 447.925 165.046C446.493 166.288 444.923 167.382 443.357 168.462C437.971 172.178 436.551 177.684 439.319 183.795C439.885 185.048 441.274 186.434 439.74 187.702C438.327 188.871 437.135 187.392 435.789 186.945C429.574 184.88 427.233 179.846 426.379 174.43C425.106 166.362 418.859 161.698 414.394 155.788C413.248 154.27 411.537 153.949 409.742 153.919C407.499 153.881 405.237 153.688 403.016 153.899C401.634 154.03 400.318 153.835 399.021 153.559C396.809 153.089 395.497 155.851 397.301 157.181C398.162 157.815 399.096 158.393 399.892 159.08C401.325 160.317 399.849 161.066 399.433 162.115C396.799 168.751 390.231 170.459 384.588 172.98C381.06 174.555 377.718 176.937 373.59 177.174C372.824 177.217 372.062 177.609 372.062 178.46C372.062 179.609 372.996 180.163 373.991 180.25C376.519 180.472 378.746 179.131 381.164 178.756C384.531 178.236 386.156 180.456 384.654 183.432C381.692 189.307 377.883 194.725 372.427 198.855C364.073 205.18 363.277 207.763 366.41 217.237C368.865 224.662 368.577 225.782 361.918 230.693C359.377 232.567 357.2 234.285 358.463 237.833C358.963 239.236 359.086 241.154 357.89 241.955C353.113 245.163 351.549 250.498 348.55 254.838C343.728 261.814 336.338 261.479 329.228 262.004C327 262.17 325.32 260.021 325.094 258.342C324.281 252.299 321.198 246.799 319.062 241.469C315.775 233.269 313.309 226.199 316.602 217.552C317.547 215.07 316.302 210.97 314.622 208.559C311.807 204.52 310.469 200.45 310.6 195.698C310.641 194.184 309.794 192.299 308.224 192.52C303.944 193.126 300.472 189.292 296.886 190.077C292.862 190.958 288.457 190.188 284.76 192.424C282.276 193.926 280.079 193.322 277.817 191.877C272.138 188.248 268.921 182.313 263.966 178.007C263.447 177.555 263.133 176.667 263.257 176.001C264.96 166.83 261.702 156.283 270.603 149.088C274.931 145.589 276.639 140.229 280.803 136.644C282.551 135.138 282.632 133.1 279.975 132.092C278.203 131.419 276.355 130.451 276.932 128.591C277.893 125.492 276.043 122.225 277.659 119.389C279.109 116.844 281.926 117.306 284.394 117.433C291.748 117.814 292.42 117.266 291.113 109.975C290.56 106.887 291.316 105.446 294.03 103.537C297.179 101.321 300.187 98.7451 303.387 96.5476C308.535 93.0107 309.117 91.6365 305.44 86.265C304.29 84.5846 303.543 82.9403 303.089 81.0478C301.827 75.7751 302.678 73.5064 307.797 71.1678C311.37 69.5368 314.048 67.4019 315.619 63.835C318.348 57.6377 323.605 54.125 329.828 51.796C332.383 50.8401 335.051 50.1735 337.623 49.2561C342.204 47.6215 346.117 46.8657 350.271 51.139C353.005 53.9514 358.221 53.5186 361.841 55.7993C363.071 56.5757 364.983 56.7095 365.753 57.7293C368.766 61.7157 370.974 63.7795 372.685 56.8831C373.078 55.3003 375.681 54.7723 377.084 56.3973C379.217 58.8672 381.138 58.2886 383.558 56.9301C387.618 54.6517 392.327 55.8066 396.699 54.9784C401.339 54.0996 398.295 52.1552 397.697 50.4784L397.78 50.3784C401.43 51.1053 405.063 51.9334 408.737 52.5169C410.681 52.8255 412.052 52.8713 412.655 49.9119C413.966 43.488 416.933 42.2765 424.188 42.9407C426.784 43.1782 429.294 42.743 431.924 43.8725C433.443 44.5247 436.167 44.2378 436.588 41.6147C437.176 37.9561 439.099 38.4274 441.934 39.2351C444.555 39.9813 448.132 41.2579 448.095 36.1142C448.085 34.7664 449.799 34.5205 451.003 34.265C456.291 33.1439 461.223 30.7836 466.925 31.0307C472.16 31.2574 473.572 27.8784 470.758 23.0265C472.301 21.8379 473.189 20.1948 474.018 18.5108ZM306.26 118.693C300.741 119.641 296.996 122.877 294.748 127.541C293.65 129.821 292.693 131.865 290.264 132.987C289.454 133.361 287.812 133.147 288.011 134.174C288.166 134.974 289.822 134.807 290.71 134.505C295.159 132.997 299.587 131.586 304.355 131.183C306.96 130.962 309.299 131.326 311.569 132.337C313.801 133.33 313.515 135.382 313.637 137.33C313.734 138.844 314.953 140.106 316.512 140.184C321.506 140.434 326.265 144.55 331.556 140.963C332.371 140.41 334.146 140.524 335.14 140.998C340.643 143.624 346.529 141.802 352.184 142.558C354.954 142.928 355.939 140.291 356.469 138.336C357.118 135.944 355.122 135.896 353.206 135.767C351.547 135.655 349.826 134.305 348.318 134.556C343.125 135.419 340.839 133.323 340.51 128.477C340.445 127.498 339.833 126.565 338.582 126.732C337.74 126.846 337.814 127.744 337.495 128.339C335.656 131.78 330.896 132.37 328.619 129.443C327.929 128.556 327.868 126.202 326.865 126.691C321.696 129.213 319.409 124.547 315.965 122.927C313.703 121.862 312.297 121.472 312.07 124.664C311.95 126.362 310.973 128.507 309.003 127.943C306.172 127.133 308.684 125.224 308.805 123.784C308.993 121.625 310.6 118.751 306.26 118.693ZM325.985 92.2477C329.43 92.4225 329.145 92.2465 330.545 90.102C333.832 85.0643 332.529 80.0846 330.813 75.0675C330.331 73.6559 330.523 71.0484 327.862 71.9706C325.836 72.6734 324.567 74.9662 325.88 76.7009C330.318 82.569 324.479 85.4019 322.091 88.9508C320.598 91.17 317.598 93.4206 315.063 89.2292C314.693 88.6156 313.838 88.119 313.238 88.6976C312.808 89.1123 312.637 90.0562 312.757 90.6914C313.548 94.8551 316.922 93.9679 319.806 93.9751C322.03 93.9811 323.44 91.1941 325.985 92.2477ZM366.983 121.542C365.931 117.558 360.119 117.902 359.259 113.331C359.063 112.288 357.598 114.932 356.555 115.699C354.903 116.913 353.236 117.275 352.213 115.279C351.376 113.646 350.476 112.665 349.02 114.156C347.356 115.86 345.386 117.62 345.706 120.372C345.909 122.121 347.293 123.12 348.813 122.798C353.584 121.788 358.003 122.436 362.508 124.16C364.395 124.881 366.462 124.015 366.983 121.542ZM362.28 159.358C360.719 159.686 360.658 160.789 360.576 161.996C360.336 165.513 362.937 167.559 364.85 169.954C365.718 171.04 366.61 172.982 368.044 172.388C370.115 171.53 368.81 169.553 368.419 168.06C367.676 165.225 365.526 163.152 364.019 160.731C363.675 160.174 362.928 159.854 362.28 159.358ZM-11 97.1732C-4.76441 93.4556 1.54929 89.9007 8.52884 87.6103C9.4191 87.3186 10.6565 86.7821 10.5598 85.7358C10.4482 84.5243 8.94421 85.0511 8.15562 84.6002C4.94297 82.7631 1.61253 81.0863 -1.43273 79.0141C-5.19467 76.4537 -5.01984 74.3345 -1.14631 72.0405C-0.310597 71.5451 0.672664 71.2883 1.58277 70.9074C2.62555 70.4698 4.7483 70.7712 4.33169 69.2752C3.96591 67.9613 2.1519 69.2029 0.985126 69.139C0.00434494 69.086 -1.04959 69.1402 -1.93366 68.8039C-3.63856 68.1553 -5.14259 66.9197 -4.83757 65.0344C-4.44947 62.6343 -2.25728 62.4487 -0.202724 62.4258C0.712342 62.4149 2.02418 63.4576 2.43088 62.3438C2.80906 61.3095 1.24179 61.1444 0.451958 60.6465C-5.44885 56.9216 -5.42653 56.0103 0.517673 52.6555C2.0217 51.8069 3.43026 50.7641 5.00868 50.0855C9.49598 48.1567 13.713 46.9886 19.0087 48.7992C24.7483 50.7617 31.2034 50.6472 37.2579 51.8611C44.7694 53.3667 51.9015 53.4017 59.5617 51.5091C66.9194 49.6913 74.8066 51.0438 82.1867 53.5668C83.0732 53.8694 84.2102 54.6313 84.8996 53.6307C85.5233 52.7254 84.762 51.743 83.9275 51.1969C82.6814 50.3832 81.5419 49.6997 81.2257 48.0121C80.8674 46.1002 79.7043 45.6735 78.1879 47.2587C76.39 49.138 74.2263 49.1042 72.0192 48.17C69.7601 47.2141 68.0329 45.8109 69.5964 43.1613C70.4718 41.6774 71.4303 40.3224 71.3249 38.4913C71.1761 35.9225 73.4861 35.3571 74.8029 36.1792C79.0397 38.8216 84.3516 37.357 88.6553 40.59C92.1941 43.2493 97.0807 44.0292 101.749 41.2627C104.443 39.6667 107.286 39.3135 106.698 44.0232C106.469 45.8519 107.1 47.8481 108.494 48.5654C112.321 50.5339 115.531 52.0516 110.084 55.903C108.942 56.7107 109.791 58.232 111.212 58.6237C112.906 59.0903 115.335 59.4145 115.53 57.3146C115.758 54.8543 116.636 53.5186 118.611 52.0998C121.833 49.7853 121.291 48.3725 117.153 48.3303C113.79 48.2953 112.638 44.908 110.107 43.5591C113.055 43.0432 114.213 39.6064 117.391 39.3942C119.12 39.2785 120.834 38.9144 122.551 38.6396C125.001 38.2478 126.679 37.0616 127.04 34.5037C127.223 33.2066 127.127 32.0108 125.551 31.7058C123.303 31.2718 121.326 29.9723 119.298 33.1367C116.433 37.6029 110.758 33.8648 106.792 35.9104L105.764 33.2644C106.385 32.6231 106.454 31.983 105.761 31.3429C106.271 28.7705 104.35 26.4512 105.634 23.5665C107.786 18.7278 108.327 18.2335 112.667 20.9073C113.961 21.7053 115.618 22.6045 115.112 24.1536C114.433 26.2245 112.629 24.4694 111.34 24.5538C109.739 24.6587 108.198 24.7985 108.18 26.7513C108.163 28.6728 109.622 29.014 111.274 29.0043C113.014 28.9947 114.758 29.161 116.492 29.0706C119.689 28.9043 121.558 27.8495 118.988 24.6297C117.869 23.2278 116.433 21.68 118.277 20.2647C120.197 18.7905 121.528 20.9326 122.458 22.0729C123.387 23.2121 126.644 23.2109 124.716 26.3415C124.132 27.2902 127.223 27.9375 128.802 28.316C129.557 28.4968 130.299 28.0484 130.488 27.2299C130.87 25.5676 130.055 24.4597 128.595 23.7063C128.364 23.5912 128.142 23.4599 127.931 23.3134C118.706 16.7219 118.817 14.6545 128.722 8.98644C130.436 8.00322 132.293 7.27814 134.23 6.8359C144.37 4.48525 154.762 3.80659 165.053 2.63608C169.355 2.14666 173.911 3.57875 178.323 4.30805C179.999 4.58531 182.929 5.25796 182.97 5.89323C183.091 7.74 180.452 7.67249 179.273 8.85143C178.603 9.52167 177.355 9.99903 178.021 11.1249C178.781 12.4088 180.463 12.4702 181.19 11.5227C185.518 5.88479 191.556 7.31085 197.494 6.95162C202.326 6.6599 207.206 6.0415 212.172 4.38037C217.64 2.55048 224.162 2.02009 230.306 1.54152C231.537 1.44629 233.12 2.12617 233.981 1.59335C241.413 -3.00187 247.628 3.83672 254.566 3.51125C255.393 3.47267 256.03 4.15254 255.765 4.95899C255.567 5.56172 254.924 6.42725 254.42 6.46703C250.953 6.74308 247.469 6.81541 243.992 6.99744C243.275 7.03481 242.569 7.26384 241.857 7.40488C242.278 8.58744 243.36 8.18361 244.145 8.18241C251.57 8.16553 258.983 9.18535 266.432 8.31742C268.241 8.10646 270.864 7.85572 271.22 10.5017C271.5 12.5835 269.223 12.9777 267.743 13.7673C262.421 16.6074 256.487 19.1051 260.564 26.8562C261.073 27.8242 259.75 28.7186 259.773 29.4708C259.973 36.1551 253.964 41.3796 255.247 48.3484C255.608 50.3085 254.342 52.3529 252.292 52.9677C247.815 54.3106 244.332 58.1476 239.218 57.8378C238.735 57.8089 238.136 57.8414 237.761 58.0909C230.441 62.9586 220.693 65.2682 218.241 75.3085C217.31 79.1214 215.014 79.5976 211.511 78.6236C205.962 77.0806 203.218 72.976 200.431 68.5447C197.543 63.9531 196.291 59.7966 200.714 55.4847C201.404 54.8121 201.356 53.9682 200.39 53.0895C198.184 51.0836 194.286 44.5114 193.701 42.3259C191.906 35.6211 185.04 30.1471 178.236 31.9143C170.719 33.8672 168.013 29.0019 164.238 25.1517C162.702 23.587 164.048 22.4924 165.435 21.8186C167.42 20.853 169.759 20.859 171.682 19.5246C173.241 18.4433 173.346 17.5199 172.551 15.9287C171.713 14.2495 170.686 14.8402 169.551 15.2826C162.794 17.9129 156.798 21.1351 154.58 28.7765C153.837 31.3381 151.756 33.4284 151.074 36.3625C150.488 38.8867 146.932 38.3117 144.534 38.6902C143.66 38.8289 142.146 38.0248 142.069 39.2013C142.012 40.0741 143.828 39.657 144.607 40.0922C149.996 43.0986 156.679 41.2687 162.058 45.0551C166.34 48.0699 171.387 49.6503 173.471 55.3184C174.488 58.0849 178.43 59.0854 181.398 60.2981C182.786 60.8647 184.798 61.3023 183.283 63.0466C182.096 64.4124 181.533 67.6876 178.359 66.0602C177.29 65.5118 176.494 64.469 175.551 63.6782C175.003 63.219 174.26 62.6054 173.651 63.1237C172.979 63.6951 173.634 64.4063 174.101 64.9235C174.758 65.6516 175.562 66.2676 176.145 67.0427C177.208 68.4579 179.996 69.7815 177.815 71.7307C176.169 73.2026 174.097 75.5713 171.311 74.3008C165.822 71.7994 160.905 67.7708 154.18 68.9329C153.543 69.0425 152.917 68.2216 152.906 67.4321C152.892 66.5485 153.539 66.1868 154.349 66.1241C155.588 66.0277 156.898 66.2037 158.057 65.8686C161.236 64.9476 163.189 61.1275 162.056 58.3742C160.741 55.1761 152.771 51.4573 148.998 51.878C146.323 52.1769 148.069 53.2004 147.888 54.3058C147.378 57.4207 149.931 62.3571 143.112 62.6235C140.69 62.7187 142.607 64.6583 143.583 65.5371C145.356 67.1343 149.503 67.3863 149.017 69.7128C148.555 71.9308 144.512 68.7062 142.462 70.9653C141.609 71.9055 140.018 72.0032 138.999 71.1943C134.999 68.0215 132.583 71.3148 130.029 73.2822C122.431 79.1359 122.745 82.3713 131.565 86.5037C133.561 87.4379 135.399 88.8435 137.534 89.3486C143.097 90.6661 147.836 92.6816 149.233 98.8681C149.48 99.9578 150.864 101.932 152.536 100.406C153.456 99.566 153.463 98.1653 152.752 97.1515C150.574 94.0414 150.985 91.9777 154.722 90.3877C156.39 89.6789 155.883 87.8116 155.185 86.5157C153.944 84.2133 154.42 81.7843 154.306 79.3938C154.016 73.2641 157.557 71.0207 163.234 73.9331C165.393 75.0409 167.877 76.3404 169.086 78.2318C171.114 81.4058 172.709 83.0512 176.634 80.6849C179.186 79.1467 181.001 81.5082 181.826 83.4297C183.63 87.6332 186.929 90.3407 190.287 93.2422C192.844 95.4518 196.89 97.436 194.482 102.165C193.703 103.692 195.461 104.03 196.425 104.662C198.099 105.76 199.665 106.976 200.037 109.071C200.208 110.034 199.567 111.733 199.445 111.641C196.705 109.579 193.433 111.542 190.737 110.491C188.919 109.782 188.818 107.909 189.499 106.082C190.544 103.274 189.03 103.346 186.877 103.865C185.446 104.209 183.869 104.43 182.432 104.219C177.252 103.461 177.543 105.173 179.118 109.189C180.515 112.754 181.946 112.475 184.552 111.044C185.771 110.375 187.055 110.526 187.625 111.916C188.167 113.236 187.321 114.78 186.286 114.943C182.401 115.555 179.229 120.106 174.614 116.907C173.226 115.945 170.892 116.675 170.654 117.749C169.712 122.012 166.017 123.134 162.969 125.09C162.394 125.459 161.973 126.215 161.722 126.878C159.479 132.758 156.273 137.791 150.959 141.744C148.259 143.752 148.084 147.244 150.855 150.132C152.215 151.548 152.6 153.503 150.767 154.523C148.952 155.532 148.696 152.999 147.606 152.216C146.445 151.38 145.463 150.168 144.726 148.937C142.555 145.311 139.221 144.92 135.67 146.027C133.496 146.704 131.397 147.217 129.132 147.218C124.673 147.22 120.693 147.006 121.727 153.79C122.112 156.32 118.39 159.163 121.795 162.394C124.275 164.745 126.515 165.862 129.644 163.963C130.699 163.323 131.686 162.572 132.753 161.951C134.308 161.046 136.242 160.351 137.725 161.245C140.001 162.617 137.773 164.342 137.171 165.531C135.237 169.366 135.618 171.352 140.569 171.313C143.21 171.292 144.684 173.009 144.745 175.533C144.802 177.898 143.77 180.872 146.881 181.786C150.126 182.738 154.245 183.061 156.777 181.094C162.228 176.859 167.598 177.756 173.458 179.541C175.034 180.021 176.67 180.248 178.318 180.352C187.823 180.962 193.055 189.69 201.781 191.751C204.757 201.764 215.392 200.216 222.239 204.374C224.013 205.451 226.292 206.005 228.211 207.156C231.913 209.379 232.933 212.232 230.125 215.582C227.316 218.931 226.59 222.856 225.394 226.823C223.429 233.343 222.219 240.875 212.577 241.468C209.978 241.629 208.628 244.006 207.859 246.543C204.774 256.727 203.66 257.801 192.343 262.051C191.465 262.382 191.211 262.719 191.499 263.503C193.277 268.342 189.868 269.659 186.261 269.987C182.89 270.294 182.717 273.02 181.38 274.794C178.974 277.985 178.414 282.331 174.828 284.865C174.605 285.023 174.855 286.425 175.283 286.744C177.601 288.474 176.574 289.589 175.099 291.39C170.209 297.369 170.297 297.697 174.689 303.917C175.391 304.91 176.747 305.651 174.544 306.371C168.587 308.319 162.995 305.626 160.738 299.861C158.978 295.364 158.874 290.451 160.104 286.247C162.672 277.469 162.297 268.348 164.479 259.446C166.149 252.632 167.497 245.051 167.609 237.632C167.68 232.99 165.775 229.416 161.993 227.243C157.807 224.836 155.461 221.456 153.884 217.244C153.465 216.126 152.712 215.128 152.183 214.043C150.786 211.18 145.233 210.233 148.42 205.164C150.143 202.423 149.386 198.434 152.561 196.168C154.606 194.71 154.71 192.588 154.828 190.333C154.954 187.923 154.357 186.929 151.63 186.671C146.699 186.206 141.53 185.689 140.314 179.425C140.05 178.065 138.374 177.915 137.264 177.697C131.536 176.565 127.017 172.868 120.396 172.633C114.808 172.435 107.277 169.678 104.441 162.442C103.189 159.246 101.787 156.923 96.6058 157.943C92.3677 158.777 89.6175 153.595 88.1792 149.84C85.9362 143.987 82.7384 139.493 77.5592 135.463C71.961 131.108 70.4235 123.953 70.5648 116.998C70.6615 112.246 71.0323 107.749 65.775 105.163C64.6553 104.612 64.1966 103.726 64.0416 102.304C63.4253 96.6621 62.9492 96.3463 56.7868 95.8701C54.8041 95.717 54.8822 94.08 54.1532 92.8866C49.6708 85.555 43.9783 80.1268 34.4668 79.1274C31.0199 78.7646 28.9033 80.4932 26.1519 81.0104C23.2319 81.5589 19.7564 80.2353 21.6758 85.5116C22.2424 87.0714 19.7291 89.4329 17.6733 88.7868C13.9151 87.6043 12.1246 89.5619 10.1978 91.8836C9.739 92.437 9.15376 93.2892 8.59951 93.3097C1.78984 93.5616 -3.83943 97.9519 -10.5635 98.4305L-11 97.1732ZM130.561 43.0528C129.34 43.2529 128.12 43.4868 127.273 44.474C126.307 45.5999 126.67 46.7813 127.477 47.724C130.091 50.775 132.034 54.5553 136.658 55.4642C137.556 55.6402 136.425 58.2959 138.36 57.8318C139.305 57.6063 140.278 56.2442 140.621 55.2038C141.062 53.8622 139.806 52.9267 138.636 52.6459C134.624 51.6839 133.208 48.9222 132.778 45.3106C132.631 44.0774 132.244 42.9298 130.561 43.0528Z" fill="#676A6B" fill-opacity="0.4"/>
<path d="M547.242 222.468C547.176 218.912 547.314 215.867 543.386 214.945C542.907 214.832 542.033 214.579 542.047 214.471C542.917 207.116 536.25 208.302 532.38 206.31C531.525 205.869 530.806 205.119 530.132 204.414C528.928 203.152 527.528 201.601 528.918 199.979C530.546 198.077 533.149 198.711 534.021 200.421C535.845 204.001 538.106 202.938 541.236 202.669C548.166 202.073 553.724 205.681 557.501 210.997C558.968 213.062 563.088 215.375 561.811 216.744C559.776 218.926 557.159 215.592 554.848 214.459C552.988 213.547 551.367 214.001 550.14 215.385C548.77 216.93 549.68 218.461 550.457 220.068C554.241 227.896 559.809 234.543 565.124 241.361C570.072 247.707 570.349 251.211 566.382 258.125C565.649 259.402 564.897 260.671 564.274 262.001C559.484 272.22 551.545 273.479 543.402 265.981C539.55 262.434 534.909 259.655 530.447 256.791C527.665 255.004 524.813 255.862 522.005 257.38C517.438 259.852 512.653 261.607 507.306 262.122C501.463 262.683 501.395 263.005 500.572 257.256C499.866 252.313 496.825 247.998 497.53 242.55C498.091 238.199 499.776 236.039 503.914 234.896C507.334 233.952 510.539 233.347 512.196 228.831C513.114 226.328 517.961 223.816 521.993 224C524.342 224.107 525.657 223.754 526.833 221.811C528.677 218.762 531.847 219.102 534.85 219.322C536.804 219.464 538.444 220.332 537.962 222.486C536.877 227.343 540.091 228.964 543.763 228.769C547.98 228.543 546.843 224.575 547.242 222.468ZM320.406 16.2182C318.004 16.7944 314.735 14.3015 313.21 17.8829C311.644 21.5608 316.001 22.5203 317.06 25.0361C317.65 26.4369 318.918 27.2265 320.09 28.1318C322.203 29.764 324.442 30.0147 325.807 27.6761C327.91 24.0718 330.193 24.0091 333.264 26.332C334.06 26.9336 335.172 26.8034 336.014 26.1271C336.643 25.622 336.988 24.695 336.36 24.2393C329.748 19.4416 335.664 20.2553 338.504 19.5043C339.655 19.1993 340.703 18.4435 341.724 17.7853C342.3 17.4152 343.102 16.8414 343.128 16.3291C343.166 15.56 342.181 15.4515 341.491 15.4069C338.029 15.1851 334.779 13.5421 330.858 14.0894C327.313 13.3661 323.991 15.3575 320.406 16.2182ZM100.612 28.9792C99.4526 27.7183 97.6646 27.4193 96.9517 29.1178C94.1718 35.7382 90.7868 30.7211 88.6764 29.1504C83.0484 24.9638 80.6256 24.7384 75.8481 29.2348C73.7775 31.184 73.6473 32.4064 76.7471 33.0091C80.8785 33.8119 84.762 34.9668 88.4991 37.1269C93.0261 39.744 102.137 37.3282 105.763 33.2646C106.384 32.6233 106.453 31.9832 105.76 31.3431C103.574 31.5191 102.023 30.5138 100.612 28.9792ZM489.06 196.788C488.792 196.974 488.745 197.725 488.866 198.139C489.825 201.42 490.842 204.713 494.87 205.659C498.353 206.477 500.902 205.559 503.117 202.503C505.89 198.674 504.629 194.13 506.217 190.114C506.803 188.632 504.848 187.846 502.276 187.829C498.277 190.522 493.645 193.622 489.06 196.788ZM382.323 221.078C379.22 223.198 374.917 224.857 373.323 228.083C371.486 231.799 370.824 236.296 371.089 240.646C371.182 242.174 372.011 243.393 373.713 243.688C375.774 244.044 378.221 243.913 378.81 241.859C380.443 236.169 383.608 230.949 384.414 225.378C383.721 223.485 384.369 219.68 382.323 221.078ZM397.784 50.3906C392.652 44.8503 392.658 43.6822 398.479 38.9846C401.914 36.2132 405.661 33.9071 410.127 32.8825C412.034 32.4449 413.897 31.7385 415.685 30.9501C416.161 30.7404 416.546 29.7652 416.515 29.1649C416.455 28.0281 415.484 27.4386 414.427 27.6906C404.809 29.9773 395.185 32.2762 388.954 40.8096C386.463 44.2211 387.32 47.9303 391.132 49.7758C393.221 50.7872 395.486 50.4642 397.701 50.4895L397.784 50.3906ZM600.322 284.075C602.116 279.867 605.383 277.23 609.016 274.607C613.426 271.423 613.109 269.123 608.56 265.619C607.599 264.878 606.636 263.665 605.392 264.217C603.891 264.883 604.847 266.28 605.045 267.391C605.617 270.6 605.174 272.793 601.55 274.656C598.471 276.239 596.281 279.608 593.97 282.399C592.15 284.597 593.133 286.924 595.965 287.083C597.908 287.108 599.579 285.817 600.322 284.075ZM547.191 124.263C546.192 123.703 545.142 123.9 544.618 124.815C541.448 130.367 536.158 133.079 530.399 135.365C528.044 136.299 526.404 138.225 526.525 141C526.572 142.073 527.186 143.02 528.341 142.52C533.605 140.247 539.037 138.204 543.943 135.326C546.895 133.595 547.893 129.95 548.577 127.122C548.657 125.521 548.095 124.768 547.191 124.263ZM466.932 12.3101C463.364 10.045 461.163 12.2016 459.828 14.8837C458.44 17.6732 459.453 20.1347 462.818 21.0726C465.444 21.8043 468.112 22.3902 470.762 23.0411C472.301 21.8393 473.189 20.1962 474.018 18.5122C472.38 15.6613 469.629 14.0206 466.932 12.3101ZM540.093 32.8283C538.623 35.3344 541.762 35.7165 542.873 37.0425C543.339 37.5995 543.863 38.1178 544.261 38.7169C545.378 40.3986 546.723 42.1609 548.951 41.4521C551.706 40.5758 548.3 38.5867 549.375 37.2246C549.966 36.4748 550.466 35.6502 551.094 34.933C552.581 33.2345 551.598 32.3051 549.962 31.8675C548.556 31.4914 547.045 31.4866 546.065 31.3745C543.634 31.577 541.17 30.9899 540.093 32.8283ZM512.096 179.704C514.508 181.729 516.699 180.119 517.919 178.687C519.238 177.138 517.783 175.339 515.852 174.967C512.358 174.293 512.147 172.632 513.36 169.788C513.874 168.581 512.404 167.546 511.227 167.236C509.655 166.821 509.092 168.202 508.7 169.314C508.385 170.209 508.421 171.221 508.301 172.181C508.057 175.421 509.714 177.703 512.096 179.704ZM506.225 203.074C506.408 205.225 506.723 208.304 509.125 208.839C510.422 209.128 513.739 207.99 513.521 205.155C513.362 203.079 512.859 200.783 509.871 200.478C508.09 200.562 506.063 201.152 506.225 203.074Z" fill="#676A6B" fill-opacity="0.4"/>
</g>
</svg>
